<?xml version="1.0" standalone="no"?>
<!DOCTYPE svg PUBLIC "-//W3C//DTD SVG 20010904//EN"
 "http://www.w3.org/TR/2001/REC-SVG-20010904/DTD/svg10.dtd">
<svg version="1.0" xmlns="http://www.w3.org/2000/svg"
 width="700.000000pt" height="700.000000pt" viewBox="0 0 700.000000 700.000000"
 preserveAspectRatio="xMidYMid meet">
<metadata>
Created by potrace 1.11, written by Peter Selinger 2001-2013
</metadata>
<g transform="translate(0.000000,700.000000) scale(0.100000,-0.100000)"
fill="#000000" stroke="none">
<path d="M4249 6646 c-2 -2 -60 -7 -129 -10 -69 -4 -147 -9 -175 -11 -27 -2
-86 -7 -130 -10 -44 -3 -105 -7 -135 -10 -30 -2 -100 -7 -155 -10 -55 -3 -111
-8 -125 -10 -14 -2 -74 -6 -135 -10 -60 -4 -128 -8 -150 -10 -22 -2 -78 -7
-125 -10 -47 -3 -110 -7 -140 -10 -58 -5 -151 -11 -310 -21 -52 -3 -126 -7
-165 -10 -38 -2 -221 -6 -405 -9 -184 -2 -346 -6 -360 -8 -14 -3 -45 -8 -70
-11 -52 -8 -203 -68 -223 -88 -37 -38 -75 -204 -71 -308 5 -132 69 -217 182
-241 127 -27 382 -10 605 40 26 6 64 14 85 17 20 2 60 9 87 14 68 13 206 30
355 45 118 12 416 6 495 -9 11 -3 31 -5 45 -5 54 -2 56 -8 65 -173 3 -62 8
-147 10 -188 3 -41 7 -136 11 -210 3 -74 7 -169 9 -210 18 -391 25 -743 15
-753 -3 -2 -42 -8 -87 -11 -46 -4 -91 -9 -100 -10 -10 -2 -58 -7 -107 -11 -50
-4 -97 -8 -105 -10 -9 -1 -47 -6 -86 -9 -134 -13 -160 -17 -218 -32 -32 -8
-84 -28 -115 -44 -63 -31 -114 -47 -182 -55 -25 -3 -61 -7 -80 -10 -19 -2 -69
-7 -110 -11 -41 -3 -86 -8 -100 -9 -14 -1 -56 -6 -95 -9 -38 -4 -86 -9 -105
-12 -305 -41 -406 -77 -575 -204 -55 -41 -104 -78 -108 -81 -11 -8 22 -76 75
-154 56 -83 145 -158 247 -208 l86 -42 174 -1 c165 -1 260 9 351 36 95 28 339
91 370 96 19 3 55 10 80 14 51 10 436 6 490 -5 64 -12 213 -66 269 -96 94 -50
90 -43 96 -165 3 -60 7 -138 10 -174 2 -36 7 -123 11 -194 3 -71 8 -152 9
-180 6 -94 6 -462 -1 -532 -16 -172 -57 -321 -133 -474 l-46 -94 -95 -23 c-52
-12 -104 -24 -115 -27 -11 -2 -49 -11 -85 -20 -36 -8 -76 -18 -90 -20 -14 -3
-56 -12 -95 -21 -38 -8 -90 -18 -115 -21 -25 -3 -54 -8 -65 -11 -56 -13 -264
-11 -320 2 -87 21 -210 86 -326 173 -239 180 -228 174 -283 167 -60 -7 -187
-32 -238 -47 -29 -8 -38 -17 -43 -39 -22 -97 69 -365 167 -493 75 -97 195
-200 503 -431 88 -66 162 -123 165 -126 3 -3 55 -44 117 -90 114 -86 170 -113
358 -172 150 -48 368 -100 509 -122 21 -4 48 -9 60 -11 30 -6 104 -17 212 -31
73 -10 476 -9 564 0 185 21 245 31 372 63 436 110 836 331 1253 694 164 143
195 183 245 312 12 29 27 67 35 83 31 69 118 305 134 368 13 48 18 99 17 172
-2 158 -27 181 -190 170 -104 -7 -156 -17 -217 -43 -49 -22 -186 -113 -268
-180 -60 -48 -136 -89 -234 -126 -65 -24 -191 -63 -237 -72 -13 -3 -63 -14
-110 -25 -237 -56 -396 -42 -569 47 -87 45 -137 86 -162 136 -68 134 -85 600
-34 938 38 250 77 382 160 537 120 226 329 410 497 438 18 3 44 7 58 10 14 2
45 7 70 10 25 3 56 8 70 10 14 2 52 7 85 10 33 3 94 10 136 15 41 6 95 12 120
15 24 2 60 7 79 9 34 5 57 8 170 22 99 11 110 13 120 19 5 3 7 11 5 18 -2 7
-6 32 -9 58 -6 57 -40 155 -63 183 -38 45 -80 76 -156 116 l-79 43 -452 3
c-541 3 -608 7 -746 41 -83 20 -96 29 -115 76 -15 36 -42 148 -50 207 -2 14
-6 39 -9 55 -15 93 -18 123 -42 380 -12 138 -10 409 4 495 29 177 91 310 173
369 110 80 272 90 910 55 116 -6 198 3 264 31 109 47 137 61 202 101 39 24 85
60 102 79 28 32 29 37 19 67 -49 143 -189 229 -413 252 -33 4 -85 9 -115 12
-65 6 -686 15 -691 10z"/>
</g>
</svg>
